<?xml version="1.0" standalone="no"?>
<!DOCTYPE svg PUBLIC "-//W3C//DTD SVG 20010904//EN"
 "http://www.w3.org/TR/2001/REC-SVG-20010904/DTD/svg10.dtd">
<svg version="1.0" xmlns="http://www.w3.org/2000/svg"
 width="1083.000000pt" height="504.000000pt" viewBox="0 0 1083.000000 504.000000"
 preserveAspectRatio="xMidYMid meet">
<metadata>
Created by potrace 1.10, written by Peter Selinger 2001-2011
</metadata>
<g transform="translate(0.000000,504.000000) scale(0.100000,-0.100000)"
fill="#00ff89" stroke="none">
<path d="M0 2520 l0 -2520 5415 0 5415 0 0 2520 0 2520 -5415 0 -5415 0 0
-2520z m3718 2425 c1 -4 -2094 -8 -2484 -5 -3 0 -3 3 -1 8 6 8 2480 5 2485 -3z
m-2548 -35 c-47 -6 -63 -3 -56 8 2 4 26 5 53 3 l48 -5 -45 -6z m2676 2 c-2 -4
-26 -5 -53 -3 l-48 5 45 6 c47 6 63 3 56 -8z m-2781 -32 c-32 -7 -48 -3 -41 9
3 4 20 5 38 2 l33 -5 -30 -6z m2871 1 c-3 -4 -20 -5 -38 -2 l-33 5 30 6 c32 7
48 3 41 -9z m-2961 -31 c-32 -7 -48 -3 -41 9 3 4 20 5 38 2 l33 -5 -30 -6z
m3051 1 c-3 -4 -20 -5 -38 -2 l-33 5 30 6 c32 7 48 3 41 -9z m-3127 -32 c-15
-9 -32 -2 -24 11 3 5 13 6 21 3 12 -4 13 -8 3 -14z m3186 1 c-3 -5 -13 -6 -21
-3 -12 4 -13 8 -3 14 15 9 32 2 24 -11z m-3246 -31 c-15 -9 -32 -2 -24 11 3 5
13 6 21 3 12 -4 13 -8 3 -14z m3306 1 c-3 -5 -13 -6 -21 -3 -12 4 -13 8 -3 14
15 9 32 2 24 -11z m-3366 -31 c-15 -9 -32 -2 -24 11 3 5 13 6 21 3 12 -4 13
-8 3 -14z m6117 1 c2371 0 2683 -2 2694 -15 8 -9 30 -15 60 -15 30 0 52 -6 60
-15 7 -8 27 -15 45 -15 18 0 38 -7 45 -15 7 -8 27 -15 45 -15 18 0 38 -7 45
-15 7 -8 20 -15 30 -15 10 0 23 -7 30 -15 7 -8 20 -15 30 -15 10 0 23 -7 30
-15 7 -8 20 -15 29 -15 10 0 30 -13 46 -30 16 -16 36 -30 45 -30 9 0 36 -20
60 -45 24 -25 51 -45 59 -45 21 0 211 -190 211 -210 0 -9 20 -36 45 -60 25
-24 45 -51 45 -60 0 -9 14 -29 30 -45 17 -16 30 -36 30 -46 0 -9 7 -22 15 -29
8 -7 15 -20 15 -30 0 -10 7 -23 15 -30 8 -7 15 -20 15 -30 0 -10 7 -23 15 -30
8 -7 15 -27 15 -45 0 -18 7 -38 15 -45 8 -7 15 -27 15 -45 0 -18 7 -38 15 -45
9 -8 15 -30 15 -60 0 -30 6 -52 15 -60 13 -11 15 -138 15 -1035 0 -897 -2
-1024 -15 -1035 -9 -8 -15 -30 -15 -60 0 -30 -6 -52 -15 -60 -8 -7 -15 -27
-15 -45 0 -18 -7 -38 -15 -45 -8 -7 -15 -27 -15 -45 0 -18 -7 -38 -15 -45 -8
-7 -15 -20 -15 -30 0 -10 -7 -23 -15 -30 -8 -7 -15 -20 -15 -30 0 -10 -7 -23
-15 -30 -8 -7 -15 -20 -15 -29 0 -10 -13 -30 -30 -46 -16 -16 -30 -36 -30 -45
0 -9 -20 -36 -45 -60 -25 -24 -45 -51 -45 -59 0 -21 -190 -211 -210 -211 -9 0
-36 -20 -60 -45 -24 -25 -51 -45 -60 -45 -9 0 -29 -14 -45 -30 -16 -17 -36
-30 -46 -30 -9 0 -22 -7 -29 -15 -7 -8 -20 -15 -30 -15 -10 0 -23 -7 -30 -15
-7 -8 -20 -15 -30 -15 -10 0 -23 -7 -30 -15 -7 -8 -27 -15 -45 -15 -18 0 -38
-7 -45 -15 -7 -8 -27 -15 -45 -15 -18 0 -38 -7 -45 -15 -8 -9 -30 -15 -60 -15
-30 0 -52 -6 -60 -15 -11 -13 -319 -15 -2659 -15 -1455 0 -2656 3 -2669 6 -29
8 -23 28 8 32 13 2 29 10 35 16 5 7 39 35 74 61 81 61 158 139 218 221 26 35
50 64 55 64 4 0 8 7 8 15 0 16 8 27 43 66 9 10 17 25 17 33 0 7 7 19 15 26 8
7 15 20 15 30 0 10 7 23 15 30 8 7 15 20 15 30 0 10 7 23 15 30 8 7 15 25 15
40 0 15 7 33 15 40 8 7 15 24 15 39 0 14 7 35 15 45 8 11 15 36 15 55 1 20 7
47 15 61 8 14 15 52 15 85 0 33 7 87 15 120 22 89 22 2061 0 2150 -8 33 -15
87 -15 120 0 33 -7 71 -15 85 -8 14 -14 41 -15 61 0 19 -7 44 -15 55 -8 10
-15 31 -15 45 0 15 -7 32 -15 39 -8 7 -15 25 -15 40 0 15 -7 33 -15 40 -8 7
-15 20 -15 30 0 10 -7 23 -15 30 -8 7 -15 20 -15 30 0 10 -7 23 -15 30 -8 7
-15 19 -15 26 0 8 -8 23 -17 33 -35 39 -43 50 -43 66 0 8 -4 15 -8 15 -5 0
-30 29 -56 65 -61 83 -148 170 -231 231 -36 26 -65 51 -65 56 0 4 -9 8 -20 8
-11 0 -20 4 -20 10 0 5 -11 12 -24 16 -13 3 -26 14 -29 25 -3 10 -13 19 -24
19 -15 0 -16 2 -3 10 9 6 18 6 24 0 6 -6 995 -10 2692 -10z m-6207 -61 c-15
-9 -32 -2 -24 11 3 5 13 6 21 3 12 -4 13 -8 3 -14z m-120 -90 c-15 -9 -32 -2
-24 11 3 5 13 6 21 3 12 -4 13 -8 3 -14z m-186 -185 c-4 -12 -8 -13 -14 -3 -9
15 -2 32 11 24 5 -3 6 -13 3 -21z m-90 -120 c-4 -12 -8 -13 -14 -3 -9 15 -2
32 11 24 5 -3 6 -13 3 -21z m-60 -90 c-4 -12 -8 -13 -14 -3 -9 15 -2 32 11 24
5 -3 6 -13 3 -21z m-30 -60 c-4 -12 -8 -13 -14 -3 -9 15 -2 32 11 24 5 -3 6
-13 3 -21z m1745 -276 l-3 -263 -141 -3 c-110 -2 -145 -6 -154 -17 -7 -8 -21
-15 -31 -15 -11 0 -27 -8 -38 -19 -10 -10 -23 -20 -27 -22 -25 -11 -84 -99
-84 -125 0 -16 -7 -38 -15 -48 -10 -13 -15 -44 -15 -88 l0 -68 255 0 255 0 0
-270 c0 -259 -1 -270 -20 -280 -13 -7 -105 -10 -252 -10 l-233 1 -3 -810 -2
-811 -250 0 -250 0 -2 811 -3 811 -191 -2 c-164 -1 -194 2 -208 15 -14 14 -16
51 -16 281 l0 264 210 0 210 0 0 139 c0 111 3 141 15 151 9 8 15 30 15 60 0
30 6 52 15 60 8 7 15 23 15 35 0 12 7 28 15 35 8 7 15 23 15 35 0 13 7 25 15
29 8 3 15 15 15 26 0 11 7 23 15 26 8 4 15 12 15 20 0 8 5 14 10 14 6 0 15 11
20 24 5 14 33 44 62 66 29 23 55 46 56 51 2 5 10 9 18 9 8 0 17 7 20 15 4 8
17 15 30 15 14 0 27 7 30 15 4 8 17 15 30 15 14 0 27 7 30 15 4 9 19 15 39 15
18 0 38 7 45 15 7 8 27 15 45 15 18 0 38 7 45 15 10 12 45 15 196 15 l184 0
-2 -262z m872 -18 l0 -280 -280 0 -280 0 0 280 0 280 280 0 280 0 0 -280z
m1230 -110 l0 -390 210 0 210 0 0 -280 0 -280 -210 0 -210 0 0 -885 0 -885
-277 2 -278 3 -3 883 -2 882 -210 0 -210 0 0 280 0 280 210 0 210 0 0 390 0
390 280 0 280 0 0 -390z m-3877 344 c-4 -12 -8 -13 -14 -3 -9 15 -2 32 11 24
5 -3 6 -13 3 -21z m-32 -76 l-5 -33 -6 30 c-7 32 -3 48 9 41 4 -3 5 -20 2 -38z
m-30 -90 l-5 -33 -6 30 c-7 32 -3 48 9 41 4 -3 5 -20 2 -38z m-30 -105 l-5
-48 -6 45 c-6 47 -3 63 8 56 4 -2 5 -26 3 -53z m-31 -1311 c0 -683 -2 -1242
-5 -1242 -4 0 -8 2039 -5 2487 0 3 2 4 5 1 3 -3 5 -564 5 -1246z m2768 -314
l-3 -1163 -277 -3 -278 -2 0 1165 0 1165 280 0 280 0 -2 -1162z m-2736 -1051
c-10 -21 -17 7 -13 50 l5 48 6 -45 c3 -25 4 -48 2 -53z m31 -90 c-10 -18 -19
5 -14 35 l5 33 6 -30 c4 -16 5 -33 3 -38z m30 -90 c-10 -18 -19 5 -14 35 l5
33 6 -30 c4 -16 5 -33 3 -38z m31 -59 c-9 -14 -23 2 -17 18 4 12 8 13 14 3 4
-7 5 -17 3 -21z m30 -60 c-9 -14 -23 2 -17 18 4 12 8 13 14 3 4 -7 5 -17 3
-21z m30 -60 c-9 -14 -23 2 -17 18 4 12 8 13 14 3 4 -7 5 -17 3 -21z m60 -90
c-9 -14 -23 2 -17 18 4 12 8 13 14 3 4 -7 5 -17 3 -21z m90 -120 c-9 -14 -23
2 -17 18 4 12 8 13 14 3 4 -7 5 -17 3 -21z m185 -179 c-15 -9 -32 -2 -24 11 3
5 13 6 21 3 12 -4 13 -8 3 -14z m120 -90 c-15 -9 -32 -2 -24 11 3 5 13 6 21 3
12 -4 13 -8 3 -14z m90 -60 c-15 -9 -32 -2 -24 11 3 5 13 6 21 3 12 -4 13 -8
3 -14z m3426 1 c-3 -5 -13 -6 -21 -3 -12 4 -13 8 -3 14 15 9 32 2 24 -11z
m-3366 -31 c-15 -9 -32 -2 -24 11 3 5 13 6 21 3 12 -4 13 -8 3 -14z m3306 1
c-3 -5 -13 -6 -21 -3 -12 4 -13 8 -3 14 15 9 32 2 24 -11z m-3246 -31 c-15 -9
-32 -2 -24 11 3 5 13 6 21 3 12 -4 13 -8 3 -14z m3186 1 c-3 -5 -13 -6 -21 -3
-12 4 -13 8 -3 14 15 9 32 2 24 -11z m-3110 -30 c-32 -7 -48 -3 -41 9 3 4 20
5 38 2 l33 -5 -30 -6z m3051 1 c-3 -4 -20 -5 -38 -2 l-33 5 30 6 c32 7 48 3
41 -9z m-2961 -31 c-32 -7 -48 -3 -41 9 3 4 20 5 38 2 l33 -5 -30 -6z m2871 1
c-3 -4 -20 -5 -38 -2 l-33 5 30 6 c32 7 48 3 41 -9z m-2766 -31 c-47 -6 -63
-3 -56 8 2 4 26 5 53 3 l48 -5 -45 -6z m2676 2 c-2 -4 -26 -5 -53 -3 l-48 5
45 6 c47 6 63 3 56 -8z m-128 -27 c1 -4 -2094 -8 -2484 -5 -3 0 -3 3 -1 8 6 8
2480 5 2485 -3z"/>
<path d="M5220 2510 l0 -1520 215 0 215 0 0 990 0 990 25 0 c21 0 25 -5 25
-28 0 -16 7 -37 15 -48 8 -11 14 -42 15 -75 0 -38 5 -61 15 -69 10 -8 15 -31
15 -70 0 -39 5 -62 15 -70 10 -8 15 -31 15 -69 0 -35 6 -65 15 -77 8 -11 15
-41 15 -70 0 -28 6 -59 15 -70 8 -11 14 -42 15 -75 0 -38 5 -61 15 -69 10 -8
15 -31 15 -69 0 -35 6 -65 15 -77 8 -11 15 -41 15 -70 0 -28 6 -59 15 -70 8
-11 14 -42 15 -75 0 -38 5 -61 15 -69 10 -8 15 -31 15 -70 0 -39 5 -62 15 -70
10 -9 15 -32 15 -75 0 -43 5 -66 15 -75 10 -8 15 -30 15 -64 0 -30 6 -60 15
-72 8 -11 14 -42 15 -75 0 -38 5 -61 15 -69 10 -8 15 -31 15 -66 0 -31 7 -68
18 -88 l17 -36 227 0 227 0 15 32 c9 17 16 55 16 83 0 35 5 57 15 65 10 8 15
31 15 70 0 39 5 62 15 70 10 8 15 30 15 64 0 30 6 60 15 72 8 11 15 41 15 70
0 33 5 56 15 64 10 8 15 30 15 65 0 35 5 57 15 65 10 8 15 30 15 65 0 35 5 57
15 65 10 8 15 30 15 65 0 35 5 57 15 65 10 8 15 30 15 65 0 35 5 57 15 65 10
8 15 30 15 65 0 35 5 57 15 65 10 8 15 30 15 65 0 35 5 57 15 65 10 8 15 31
15 64 0 29 7 59 15 70 9 12 15 42 15 72 0 34 5 56 15 64 10 8 15 31 15 64 0
29 7 59 15 70 9 12 15 42 15 72 0 34 5 56 15 64 8 7 15 25 15 41 0 24 4 29 25
29 l25 0 0 -990 0 -990 215 0 215 0 0 1520 0 1520 -320 0 -320 0 0 -44 c0 -26
-6 -48 -15 -56 -10 -8 -15 -30 -15 -65 0 -35 -5 -57 -15 -65 -10 -8 -15 -31
-15 -70 0 -39 -5 -62 -15 -70 -10 -8 -15 -30 -15 -65 0 -35 -5 -57 -15 -65
-10 -8 -15 -31 -15 -64 0 -29 -7 -59 -15 -70 -9 -12 -15 -42 -15 -72 0 -34 -5
-56 -15 -64 -10 -8 -15 -31 -15 -64 0 -29 -7 -59 -15 -70 -9 -12 -15 -42 -15
-72 0 -34 -5 -56 -15 -64 -10 -8 -15 -31 -15 -64 0 -29 -7 -59 -15 -70 -9 -12
-15 -42 -15 -72 0 -34 -5 -56 -15 -64 -10 -8 -15 -31 -15 -64 0 -29 -7 -59
-15 -70 -9 -12 -15 -42 -15 -72 0 -34 -5 -56 -15 -64 -10 -8 -15 -31 -15 -64
0 -29 -7 -59 -15 -70 -9 -12 -15 -42 -15 -72 0 -34 -5 -56 -15 -64 -10 -8 -15
-31 -15 -70 0 -39 -5 -62 -15 -70 -10 -8 -15 -30 -15 -65 0 -34 -5 -57 -14
-65 -8 -6 -16 -30 -18 -53 -4 -50 -32 -64 -47 -24 -6 14 -15 28 -20 32 -6 3
-11 32 -11 64 0 40 -5 63 -15 71 -10 8 -15 30 -15 65 0 35 -5 57 -15 65 -10 8
-15 31 -15 70 0 39 -5 62 -15 70 -10 8 -15 30 -15 65 0 35 -5 57 -15 65 -10 8
-15 31 -15 70 0 39 -5 62 -15 70 -10 8 -15 31 -15 64 0 29 -7 59 -15 70 -9 12
-15 42 -15 72 0 34 -5 56 -15 64 -10 8 -15 30 -15 64 0 30 -6 60 -15 72 -8 11
-15 41 -15 70 0 33 -5 56 -15 64 -10 8 -15 30 -15 64 0 30 -6 60 -15 72 -8 11
-15 41 -15 70 0 33 -5 56 -15 64 -10 8 -15 30 -15 64 0 30 -6 60 -15 72 -8 11
-15 41 -15 70 0 33 -5 56 -15 64 -10 8 -15 30 -15 64 0 30 -6 60 -15 72 -8 11
-15 41 -15 70 0 33 -5 56 -15 64 -9 7 -15 35 -17 73 l-3 62 -317 3 -318 2 0
-1520z"/>
<path d="M7950 2510 l0 -1520 1040 0 1040 0 0 245 0 245 -762 2 -763 3 -3 381
c-2 311 0 383 11 393 10 8 226 12 763 13 l749 3 3 248 2 247 -765 0 -765 0 0
385 0 385 765 0 765 0 0 245 0 245 -1040 0 -1040 0 0 -1520z"/>
</g>
</svg>
