<?xml version="1.0" standalone="no"?>
<!DOCTYPE svg PUBLIC "-//W3C//DTD SVG 20010904//EN"
 "http://www.w3.org/TR/2001/REC-SVG-20010904/DTD/svg10.dtd">
<svg version="1.0" xmlns="http://www.w3.org/2000/svg"
 width="585.000000pt" height="504.000000pt" viewBox="0 0 585.000000 504.000000"
 preserveAspectRatio="xMidYMid meet">
<metadata>
Created by potrace 1.10, written by Peter Selinger 2001-2011
</metadata>
<g transform="translate(0.000000,504.000000) scale(0.100000,-0.100000)"
fill="#00ff89" stroke="none">
<path d="M1080 4939 c-25 -4 -72 -12 -105 -17 -70 -12 -142 -29 -170 -41 -11
-5 -55 -23 -97 -41 -43 -18 -83 -39 -89 -46 -6 -8 -16 -14 -21 -14 -6 0 -27
-13 -48 -30 -21 -16 -42 -30 -47 -30 -15 0 -203 -194 -203 -209 0 -3 -10 -17
-23 -31 -26 -28 -74 -116 -113 -205 -9 -22 -23 -52 -31 -67 -7 -14 -13 -38
-13 -52 0 -15 -4 -34 -10 -44 -31 -57 -34 -179 -38 -1562 -3 -1373 -2 -1438
29 -1600 18 -100 27 -132 38 -143 6 -6 11 -17 11 -24 0 -21 71 -161 122 -239
48 -74 199 -228 246 -251 18 -8 37 -24 43 -34 5 -11 15 -19 22 -19 7 0 29 -11
49 -25 20 -14 42 -25 49 -25 6 0 33 -10 58 -21 85 -40 112 -48 221 -69 144
-27 211 -32 293 -21 109 16 173 27 227 40 46 12 53 14 130 48 25 11 59 26 77
33 18 7 38 18 44 26 6 8 20 14 30 14 10 0 23 8 28 19 6 10 24 25 42 33 51 25
179 154 242 245 30 43 120 218 138 268 28 79 48 162 55 230 11 107 11 2836 1
2945 -8 79 -36 191 -58 232 -5 10 -9 22 -9 28 0 12 -64 145 -88 182 -42 66
-80 117 -124 163 -25 28 -57 61 -70 75 -20 23 -88 72 -166 122 -29 18 -97 52
-152 76 -19 8 -43 19 -53 24 -24 12 -97 28 -182 39 -38 6 -89 14 -113 19 -48
11 -107 11 -172 -1z m784 -875 c12 -32 6 -468 -7 -494 -12 -25 -15 -25 -147
-28 -74 -1 -139 -7 -144 -12 -6 -6 -18 -10 -28 -10 -48 0 -139 -95 -153 -160
-4 -19 -11 -39 -15 -45 -4 -5 -9 -35 -10 -65 -4 -100 -32 -90 243 -90 176 0
246 -3 255 -12 9 -9 12 -81 12 -263 0 -211 -2 -254 -16 -273 -15 -22 -18 -22
-255 -22 l-239 0 0 -799 c0 -714 -2 -801 -16 -815 -23 -24 -465 -24 -488 0
-14 14 -16 101 -16 813 l0 798 -187 1 c-255 2 -233 -26 -233 297 0 182 3 254
12 263 9 9 69 12 210 12 l198 0 0 123 c0 89 4 130 15 151 8 15 15 39 15 51 0
36 32 128 52 151 10 11 18 27 18 36 0 32 126 187 193 238 36 27 73 50 80 50 8
0 20 7 27 15 7 8 21 15 32 15 10 0 21 7 24 15 4 8 24 18 45 21 22 4 42 11 45
15 3 5 17 9 32 9 15 1 38 7 52 15 19 11 68 14 206 15 157 0 183 -2 188 -16z"/>
<path d="M2619 4058 c-1 -2 -2 -683 -2 -1515 l-2 -1512 191 -3 c105 -2 199 -2
208 0 16 3 17 70 16 979 -1 624 2 979 8 985 5 5 20 8 33 6 20 -2 25 -10 27
-43 2 -22 8 -45 13 -52 6 -6 14 -42 19 -80 15 -109 31 -197 40 -214 5 -9 12
-45 16 -80 4 -34 13 -74 20 -88 8 -14 14 -44 14 -67 0 -22 5 -45 11 -51 6 -6
13 -39 16 -74 3 -35 9 -68 13 -74 5 -5 11 -37 15 -70 4 -33 12 -65 17 -72 5
-6 12 -38 14 -70 3 -32 9 -67 14 -78 13 -30 31 -132 37 -205 3 -40 11 -72 21
-83 9 -10 20 -44 24 -75 12 -91 32 -196 41 -210 5 -7 11 -38 14 -70 3 -31 10
-63 16 -70 5 -7 11 -37 12 -67 4 -79 9 -83 118 -80 50 2 154 4 230 4 l137 1 0
25 c0 14 4 33 9 43 8 16 15 51 41 206 6 33 14 64 19 70 4 6 11 38 15 70 4 33
10 64 15 70 5 6 11 35 14 65 4 30 10 57 15 60 5 3 12 33 16 65 4 33 10 64 15
70 5 6 12 37 15 68 4 32 11 60 16 63 4 2 11 31 15 62 4 32 10 63 15 68 4 6 10
33 13 62 3 28 10 60 16 70 10 17 21 70 41 192 5 31 15 58 24 63 12 7 16 25 16
66 0 32 5 63 12 70 7 7 16 38 20 70 22 173 28 205 36 215 5 7 12 34 15 60 3
31 13 57 28 73 24 26 58 32 60 12 0 -7 1 -451 2 -986 l2 -973 194 0 c106 0
195 2 197 4 2 2 4 683 4 1513 l0 1509 -302 0 c-295 0 -303 -1 -306 -20 -2 -11
-7 -29 -12 -40 -5 -11 -11 -42 -14 -69 -3 -27 -10 -54 -15 -60 -4 -6 -11 -37
-14 -69 -3 -32 -10 -64 -15 -70 -5 -7 -12 -36 -16 -65 -4 -30 -11 -61 -16 -70
-5 -10 -12 -43 -15 -74 -4 -32 -11 -60 -16 -63 -5 -4 -9 -25 -9 -48 0 -23 -6
-53 -13 -68 -8 -14 -17 -52 -21 -84 -3 -32 -10 -63 -15 -69 -5 -6 -11 -34 -14
-63 -3 -28 -10 -60 -16 -70 -5 -10 -13 -44 -16 -75 -4 -32 -11 -60 -16 -63 -5
-4 -9 -25 -9 -48 0 -23 -7 -55 -15 -71 -8 -15 -15 -42 -15 -60 -1 -17 -7 -49
-15 -71 -8 -22 -15 -56 -15 -75 0 -19 -8 -51 -18 -70 -10 -19 -20 -57 -21 -84
-1 -27 -6 -57 -12 -67 -5 -10 -9 -35 -9 -57 0 -25 -7 -47 -20 -62 -15 -17 -20
-37 -20 -80 0 -31 -5 -61 -11 -67 -6 -6 -15 -40 -20 -74 -5 -35 -13 -88 -17
-117 -10 -66 -22 -80 -57 -64 -30 14 -45 48 -45 102 0 21 -4 41 -9 44 -4 3
-11 33 -15 65 -4 33 -11 63 -15 66 -5 3 -12 33 -16 67 -4 35 -11 68 -16 74 -6
7 -12 36 -16 65 -3 30 -9 59 -14 65 -5 6 -11 37 -15 70 -4 32 -11 64 -16 70
-5 7 -11 36 -15 65 -3 30 -9 59 -14 65 -5 6 -11 37 -15 70 -4 32 -11 64 -16
70 -5 7 -11 36 -15 65 -3 30 -9 59 -13 64 -5 6 -11 37 -15 70 -4 33 -12 65
-17 71 -5 7 -11 36 -15 65 -3 30 -10 60 -16 67 -5 7 -13 40 -18 75 -4 34 -15
94 -24 132 -9 39 -19 97 -22 130 -3 37 -12 68 -24 84 -11 14 -19 40 -19 63 0
22 -5 48 -10 58 -6 10 -12 42 -14 70 -2 27 -9 56 -15 64 -6 7 -14 35 -17 62
-3 27 -10 64 -16 82 l-10 32 -299 0 c-164 0 -299 -1 -300 -2z"/>
</g>
</svg>
