<svg id="svg" version="1.1" xmlns="http://www.w3.org/2000/svg" xmlns:xlink="http://www.w3.org/1999/xlink" width="400" height="186.14958448753464" viewBox="0, 0, 400,186.14958448753464"><g id="svgg"><path id="path0" d="M156.735 9.621 C 156.308 10.048,156.666 10.598,157.868 11.362 C 159.704 12.530,161.618 13.984,164.186 16.164 C 164.963 16.825,168.367 20.236,168.960 20.950 C 169.215 21.257,169.916 22.095,170.516 22.812 C 171.720 24.250,171.675 24.187,173.651 27.115 C 174.418 28.252,175.047 29.250,175.047 29.332 C 175.047 29.414,175.240 29.740,175.476 30.057 C 176.014 30.779,178.324 35.470,178.509 36.214 C 178.584 36.518,178.809 37.044,179.008 37.382 C 179.208 37.720,179.450 38.351,179.547 38.784 C 179.643 39.217,179.917 39.991,180.155 40.503 C 180.393 41.015,180.647 41.848,180.720 42.354 C 180.793 42.860,181.003 43.656,181.186 44.123 C 181.369 44.590,181.663 45.973,181.840 47.197 C 182.016 48.421,182.240 49.632,182.337 49.888 C 182.783 51.060,182.857 57.269,182.853 93.296 C 182.849 131.396,182.809 134.298,182.252 136.778 C 182.091 137.495,181.826 138.957,181.661 140.027 C 181.497 141.097,181.281 142.072,181.180 142.194 C 181.079 142.315,180.875 143.045,180.728 143.814 C 180.581 144.584,180.296 145.578,180.094 146.024 C 179.893 146.470,179.607 147.211,179.458 147.672 C 178.999 149.101,177.615 152.338,176.991 153.445 C 176.846 153.701,176.515 154.330,176.255 154.842 C 175.742 155.851,175.330 156.547,174.366 158.039 C 174.023 158.568,173.743 159.079,173.743 159.174 C 173.743 159.269,173.575 159.498,173.371 159.683 C 173.166 159.869,172.998 160.097,172.998 160.190 C 172.998 160.350,172.713 160.728,171.136 162.653 C 170.777 163.090,170.275 163.716,170.019 164.044 C 169.763 164.371,169.302 164.942,168.994 165.313 C 168.282 166.172,165.082 169.351,164.071 170.205 C 163.646 170.563,163.055 171.066,162.757 171.322 C 162.459 171.578,161.832 172.081,161.363 172.439 C 160.895 172.798,160.242 173.303,159.911 173.562 C 159.581 173.820,159.081 174.149,158.799 174.291 C 158.422 174.482,158.287 174.690,158.287 175.078 L 158.287 175.606 256.657 175.559 L 355.028 175.512 355.086 175.006 L 355.145 174.500 357.321 174.447 C 359.418 174.397,359.499 174.379,359.557 173.976 C 359.613 173.583,359.705 173.557,361.056 173.557 C 362.542 173.557,362.942 173.391,362.942 172.775 C 362.942 172.493,363.103 172.439,363.943 172.439 C 365.506 172.439,366.062 172.275,366.187 171.777 C 366.282 171.400,366.427 171.334,367.273 171.285 C 368.184 171.233,368.254 171.194,368.308 170.717 C 368.363 170.246,368.432 170.205,369.178 170.205 C 370.275 170.205,370.577 170.060,370.577 169.533 C 370.577 169.150,370.666 169.088,371.217 169.088 C 372.164 169.088,372.812 168.787,372.812 168.347 C 372.812 168.052,372.934 167.970,373.371 167.970 C 373.865 167.970,373.929 167.907,373.929 167.421 C 373.929 166.883,373.951 166.870,375.000 166.816 C 376.014 166.763,376.074 166.732,376.130 166.248 C 376.179 165.819,376.277 165.736,376.735 165.736 C 377.218 165.736,377.281 165.671,377.281 165.177 C 377.281 164.680,377.343 164.618,377.840 164.618 C 378.336 164.618,378.399 164.556,378.399 164.060 C 378.399 163.506,378.408 163.501,379.427 163.501 C 380.417 163.501,380.460 163.480,380.566 162.953 C 380.650 162.534,380.791 162.391,381.166 162.347 C 381.543 162.304,381.671 162.174,381.715 161.790 C 381.760 161.403,381.887 161.276,382.274 161.231 C 382.661 161.186,382.788 161.059,382.833 160.672 C 382.877 160.285,383.004 160.158,383.391 160.114 C 383.778 160.069,383.905 159.942,383.950 159.555 C 383.995 159.168,384.121 159.041,384.508 158.996 C 384.896 158.952,385.022 158.825,385.067 158.438 C 385.112 158.051,385.239 157.924,385.626 157.879 C 386.016 157.834,386.140 157.708,386.186 157.309 C 386.231 156.915,386.344 156.797,386.676 156.797 C 387.158 156.797,387.330 156.395,387.335 155.261 C 387.337 154.610,387.375 154.562,387.896 154.562 C 388.392 154.562,388.454 154.500,388.454 154.004 C 388.454 153.532,388.527 153.445,388.920 153.445 C 389.313 153.445,389.385 153.358,389.385 152.886 C 389.385 152.390,389.448 152.328,389.944 152.328 C 390.497 152.328,390.503 152.317,390.503 151.304 C 390.503 150.290,390.508 150.279,391.061 150.279 C 391.559 150.279,391.620 150.218,391.620 149.716 C 391.620 149.239,391.706 149.136,392.179 149.041 C 392.714 148.934,392.737 148.889,392.737 147.952 C 392.737 147.014,392.760 146.969,393.296 146.862 C 393.835 146.754,393.855 146.714,393.855 145.734 C 393.855 144.763,393.878 144.715,394.367 144.659 C 394.850 144.603,394.882 144.541,394.934 143.550 C 394.987 142.554,395.017 142.496,395.539 142.391 L 396.089 142.281 396.089 140.694 L 396.089 139.106 396.648 139.106 L 397.207 139.106 397.207 137.443 L 397.207 135.779 397.719 135.720 L 398.231 135.661 398.283 133.485 L 398.336 131.309 398.842 131.250 L 399.348 131.192 399.348 92.551 L 399.348 53.911 398.842 53.852 L 398.336 53.794 398.283 51.618 L 398.231 49.441 397.726 49.383 C 397.225 49.325,397.220 49.313,397.167 47.707 C 397.114 46.096,397.112 46.089,396.601 46.030 L 396.089 45.972 396.089 44.396 L 396.089 42.821 395.539 42.711 C 395.017 42.607,394.987 42.548,394.934 41.552 C 394.882 40.562,394.850 40.499,394.367 40.444 C 393.879 40.388,393.855 40.337,393.855 39.388 C 393.855 38.431,393.832 38.386,393.296 38.268 C 392.759 38.150,392.737 38.106,392.737 37.136 C 392.737 36.139,392.731 36.127,392.179 36.127 C 391.682 36.127,391.620 36.065,391.620 35.568 C 391.620 35.071,391.558 35.009,391.061 35.009 L 390.503 35.009 390.503 33.892 L 390.503 32.775 389.944 32.775 C 389.448 32.775,389.385 32.713,389.385 32.216 C 389.385 31.744,389.313 31.657,388.920 31.657 C 388.527 31.657,388.454 31.570,388.454 31.099 C 388.454 30.602,388.392 30.540,387.896 30.540 C 387.375 30.540,387.337 30.493,387.335 29.842 C 387.330 28.717,387.157 28.305,386.687 28.305 C 386.369 28.305,386.239 28.170,386.155 27.747 C 386.067 27.308,385.945 27.188,385.585 27.188 C 385.224 27.188,385.115 27.080,385.068 26.676 C 385.022 26.277,384.899 26.151,384.508 26.106 C 384.121 26.061,383.995 25.934,383.950 25.547 C 383.905 25.160,383.778 25.033,383.391 24.989 C 383.004 24.944,382.877 24.817,382.833 24.430 C 382.788 24.043,382.661 23.916,382.274 23.871 C 381.887 23.827,381.760 23.700,381.715 23.313 C 381.670 22.923,381.544 22.799,381.145 22.753 C 380.806 22.714,380.633 22.585,380.633 22.371 C 380.633 21.832,380.231 21.601,379.292 21.601 C 378.423 21.601,378.399 21.586,378.399 21.043 C 378.399 20.549,378.335 20.484,377.852 20.484 C 377.395 20.484,377.296 20.401,377.247 19.972 C 377.201 19.570,377.078 19.447,376.676 19.401 C 376.281 19.356,376.164 19.243,376.164 18.909 C 376.164 18.395,375.856 18.250,374.764 18.250 C 374.019 18.250,373.949 18.209,373.895 17.737 C 373.849 17.335,373.726 17.213,373.324 17.166 C 372.968 17.125,372.812 17.001,372.812 16.758 C 372.812 16.301,372.633 16.206,371.513 16.074 C 370.700 15.978,370.577 15.908,370.577 15.545 C 370.577 15.078,370.164 14.904,369.041 14.900 C 368.426 14.898,368.343 14.844,368.343 14.443 C 368.343 14.042,368.239 13.975,367.458 13.871 C 366.221 13.705,366.108 13.653,366.108 13.244 C 366.108 12.925,365.923 12.867,364.535 12.752 C 363.120 12.634,362.957 12.581,362.906 12.223 C 362.854 11.856,362.722 11.821,361.231 11.771 C 359.626 11.718,359.613 11.714,359.555 11.213 L 359.497 10.708 357.321 10.655 L 355.145 10.603 355.086 10.097 L 355.028 9.590 255.944 9.544 C 201.447 9.518,156.803 9.553,156.735 9.621 M61.825 33.518 C 61.262 33.592,60.256 33.802,59.590 33.983 C 58.925 34.165,57.903 34.376,57.319 34.453 C 56.699 34.536,56.051 34.758,55.758 34.988 C 55.475 35.211,54.986 35.382,54.634 35.382 C 53.966 35.382,52.514 35.889,52.514 36.122 C 52.514 36.199,52.011 36.446,51.397 36.670 C 50.782 36.894,50.279 37.154,50.279 37.246 C 50.279 37.339,49.923 37.517,49.488 37.641 C 49.053 37.764,48.529 38.014,48.324 38.195 C 48.119 38.377,47.763 38.595,47.532 38.680 C 46.559 39.040,42.081 43.440,40.840 45.256 C 40.667 45.510,40.425 45.779,40.302 45.854 C 40.180 45.929,40.027 46.272,39.962 46.616 C 39.898 46.959,39.646 47.428,39.402 47.657 C 39.132 47.910,38.911 48.387,38.838 48.872 C 38.766 49.351,38.545 49.833,38.283 50.079 C 37.996 50.349,37.807 50.795,37.728 51.392 C 37.662 51.890,37.405 52.660,37.156 53.104 C 36.861 53.632,36.663 54.362,36.584 55.214 C 36.517 55.931,36.311 56.941,36.125 57.459 C 35.786 58.403,35.411 62.339,35.328 65.829 L 35.289 67.505 28.008 67.598 C 22.216 67.672,20.664 67.743,20.419 67.946 C 20.089 68.221,19.935 85.654,20.258 86.162 C 20.603 86.704,21.567 86.778,28.213 86.778 C 33.428 86.778,35.022 86.832,35.138 87.011 C 35.221 87.139,35.331 100.660,35.382 117.057 C 35.459 141.951,35.517 146.921,35.730 147.178 C 36.026 147.534,52.333 147.653,52.886 147.304 C 53.132 147.148,53.177 143.524,53.259 117.132 C 53.341 90.741,53.386 87.116,53.631 86.961 C 53.797 86.856,57.487 86.783,62.699 86.781 L 71.487 86.778 71.777 86.365 C 72.166 85.809,72.220 68.434,71.834 67.913 C 71.622 67.627,70.792 67.594,62.477 67.552 L 53.352 67.505 53.353 64.246 C 53.355 61.201,53.383 60.936,53.781 60.215 C 54.015 59.791,54.256 59.120,54.316 58.726 C 54.376 58.331,54.614 57.798,54.845 57.542 C 55.076 57.286,55.398 56.812,55.560 56.490 C 56.076 55.467,57.840 53.952,59.218 53.349 C 59.576 53.192,59.995 52.980,60.149 52.878 C 61.113 52.238,61.661 52.157,65.755 52.049 C 71.289 51.903,71.441 51.881,71.796 51.194 C 72.197 50.420,72.124 34.130,71.718 33.641 C 71.442 33.308,64.098 33.217,61.825 33.518 M84.364 33.694 C 84.012 34.351,84.107 52.609,84.464 52.966 C 84.917 53.420,103.547 53.409,104.001 52.955 C 104.442 52.514,104.355 33.796,103.911 33.515 C 103.285 33.120,84.580 33.291,84.364 33.694 M129.981 33.516 C 129.738 33.669,129.690 35.531,129.609 47.805 L 129.516 61.918 122.014 62.011 C 115.619 62.091,114.485 62.146,114.331 62.384 C 114.036 62.842,114.186 81.300,114.488 81.602 C 114.676 81.790,116.350 81.856,122.025 81.900 C 127.426 81.942,129.357 82.015,129.462 82.180 C 129.540 82.302,129.605 96.606,129.607 113.966 C 129.611 147.270,129.599 146.791,130.470 147.122 C 130.742 147.226,134.712 147.300,140.005 147.300 L 149.072 147.300 149.350 146.881 C 149.592 146.515,149.640 142.371,149.723 114.246 C 149.776 96.527,149.838 82.010,149.863 81.985 C 149.887 81.961,153.235 81.919,157.304 81.892 L 164.700 81.844 164.936 81.378 C 165.365 80.531,165.274 62.715,164.839 62.322 C 164.539 62.050,163.664 62.010,157.157 61.967 L 149.814 61.918 149.721 47.858 C 149.669 40.126,149.560 33.694,149.477 33.566 C 149.290 33.277,130.436 33.229,129.981 33.516 M370.912 36.536 C 371.297 36.921,371.228 55.232,370.841 55.380 C 370.679 55.443,358.158 55.493,343.017 55.493 C 327.875 55.493,315.354 55.544,315.192 55.607 C 314.796 55.758,314.735 82.741,315.130 82.996 C 315.258 83.079,327.891 83.189,343.203 83.240 L 371.043 83.333 371.092 92.924 C 371.136 101.774,371.116 102.532,370.823 102.747 C 370.573 102.930,364.748 102.980,343.180 102.980 C 325.875 102.980,315.678 103.046,315.375 103.161 L 314.898 103.343 314.900 116.336 C 314.902 123.483,314.952 129.513,315.012 129.737 C 315.228 130.544,315.076 130.540,343.473 130.540 C 364.393 130.540,370.741 130.592,370.912 130.764 C 371.080 130.931,371.136 133.267,371.136 140.130 C 371.136 146.994,371.080 149.329,370.912 149.497 C 370.566 149.844,294.265 149.808,293.808 149.461 C 293.317 149.088,293.299 37.196,293.791 36.653 C 294.179 36.224,370.484 36.108,370.912 36.536 M216.905 36.918 C 217.009 37.046,217.155 37.821,217.229 38.641 C 217.309 39.542,217.530 40.498,217.787 41.061 C 218.059 41.660,218.257 42.558,218.340 43.575 C 218.427 44.646,218.614 45.465,218.918 46.107 C 219.244 46.797,219.368 47.382,219.371 48.249 C 219.374 49.108,219.509 49.754,219.854 50.559 C 220.180 51.319,220.380 52.224,220.480 53.392 C 220.587 54.645,220.739 55.299,221.044 55.813 C 221.352 56.331,221.497 56.961,221.593 58.194 C 221.681 59.317,221.864 60.176,222.150 60.801 C 222.427 61.406,222.630 62.330,222.730 63.441 C 222.835 64.601,223.018 65.410,223.298 65.955 C 223.587 66.516,223.752 67.268,223.843 68.441 C 223.935 69.631,224.098 70.366,224.400 70.955 C 224.697 71.534,224.871 72.304,224.972 73.482 C 225.067 74.600,225.248 75.428,225.502 75.917 C 225.756 76.403,225.946 77.275,226.059 78.461 C 226.179 79.738,226.343 80.449,226.618 80.894 C 226.896 81.344,227.058 82.058,227.186 83.404 C 227.309 84.694,227.493 85.535,227.773 86.079 C 228.057 86.631,228.207 87.324,228.265 88.361 C 228.326 89.434,228.482 90.134,228.822 90.862 C 229.172 91.609,229.323 92.312,229.405 93.562 C 229.490 94.860,229.616 95.422,229.950 95.986 C 230.278 96.540,230.420 97.156,230.531 98.500 C 230.640 99.814,230.806 100.547,231.166 101.304 C 231.543 102.096,231.654 102.615,231.656 103.596 C 231.657 104.573,231.769 105.100,232.141 105.887 C 232.484 106.612,232.670 107.409,232.779 108.622 C 232.875 109.686,233.069 110.593,233.291 111.016 C 233.519 111.451,233.694 112.294,233.775 113.341 C 233.849 114.316,234.043 115.289,234.251 115.732 C 234.444 116.144,234.775 116.885,234.987 117.379 C 235.528 118.638,236.123 117.898,236.126 115.962 C 236.126 115.573,236.345 114.826,236.615 114.293 C 236.989 113.556,237.126 112.955,237.199 111.739 C 237.268 110.597,237.415 109.908,237.723 109.295 C 238.021 108.700,238.190 107.937,238.281 106.781 C 238.358 105.806,238.548 104.850,238.742 104.463 C 239.117 103.717,239.479 101.960,239.479 100.885 C 239.479 100.488,239.684 99.728,239.936 99.196 C 240.253 98.526,240.430 97.745,240.514 96.647 C 240.587 95.693,240.773 94.789,240.983 94.370 C 241.347 93.643,241.709 91.810,241.712 90.682 C 241.713 90.319,241.891 89.691,242.108 89.285 C 242.383 88.772,242.542 88.034,242.630 86.860 C 242.722 85.626,242.874 84.951,243.194 84.346 C 243.512 83.747,243.669 83.054,243.766 81.827 C 243.859 80.658,244.047 79.794,244.375 79.034 C 244.698 78.286,244.882 77.455,244.949 76.443 C 245.017 75.398,245.182 74.676,245.500 74.022 C 245.826 73.353,245.977 72.672,246.037 71.601 C 246.097 70.527,246.242 69.878,246.555 69.274 C 246.867 68.673,247.027 67.961,247.120 66.754 C 247.212 65.567,247.375 64.828,247.676 64.240 C 247.963 63.679,248.152 62.867,248.256 61.749 C 248.357 60.667,248.549 59.825,248.808 59.328 C 249.074 58.817,249.252 58.009,249.349 56.875 C 249.449 55.719,249.626 54.926,249.912 54.367 C 250.203 53.796,250.368 53.041,250.459 51.868 C 250.551 50.674,250.713 49.945,251.018 49.354 C 251.322 48.762,251.484 48.034,251.576 46.840 C 251.669 45.646,251.831 44.917,252.135 44.326 C 252.438 43.737,252.602 43.001,252.696 41.812 C 252.790 40.628,252.952 39.899,253.244 39.348 C 253.473 38.917,253.717 38.163,253.787 37.672 L 253.915 36.778 265.924 36.778 L 277.933 36.778 277.980 92.997 C 278.014 134.402,277.972 149.283,277.817 149.468 C 277.446 149.916,262.170 149.832,261.761 149.380 C 261.477 149.066,261.453 146.269,261.456 113.092 C 261.458 93.320,261.407 77.007,261.343 76.840 C 261.017 75.991,260.528 76.567,260.430 77.915 C 260.388 78.489,260.159 79.318,259.901 79.827 C 259.573 80.474,259.407 81.197,259.308 82.402 C 259.211 83.584,259.041 84.336,258.731 84.953 C 258.416 85.578,258.256 86.295,258.171 87.467 C 258.090 88.573,257.913 89.409,257.625 90.037 C 257.358 90.623,257.155 91.521,257.079 92.458 C 257.003 93.398,256.791 94.335,256.505 94.996 C 256.222 95.651,256.006 96.596,255.932 97.510 C 255.860 98.401,255.666 99.268,255.437 99.721 C 255.199 100.191,255.010 101.065,254.924 102.094 C 254.824 103.273,254.671 103.916,254.367 104.422 C 254.056 104.939,253.925 105.508,253.860 106.611 C 253.798 107.681,253.640 108.387,253.298 109.117 C 252.968 109.822,252.782 110.623,252.690 111.735 C 252.600 112.826,252.423 113.601,252.135 114.164 C 251.853 114.714,251.661 115.534,251.561 116.613 C 251.458 117.719,251.267 118.519,250.962 119.127 C 250.638 119.770,250.489 120.434,250.427 121.508 C 250.368 122.538,250.216 123.241,249.937 123.784 C 249.681 124.282,249.470 125.179,249.361 126.233 C 249.253 127.273,249.039 128.189,248.790 128.678 C 248.540 129.167,248.326 130.083,248.218 131.126 C 248.118 132.093,247.879 133.159,247.648 133.666 C 247.392 134.229,247.203 135.138,247.120 136.218 C 247.026 137.424,246.867 138.131,246.554 138.734 C 246.230 139.356,246.096 139.979,246.033 141.155 C 245.971 142.306,245.821 143.016,245.483 143.762 C 245.155 144.487,244.996 145.220,244.938 146.276 C 244.745 149.811,245.230 149.639,234.961 149.804 L 226.439 149.942 225.897 149.361 C 225.277 148.698,224.953 147.476,224.953 145.800 C 224.953 144.989,224.825 144.428,224.477 143.714 C 224.119 142.980,223.974 142.322,223.891 141.061 C 223.813 139.864,223.651 139.093,223.324 138.361 C 223.007 137.652,222.820 136.793,222.718 135.568 C 222.615 134.339,222.423 133.458,222.090 132.682 C 221.720 131.820,221.609 131.247,221.606 130.180 C 221.603 129.222,221.493 128.562,221.250 128.038 C 220.648 126.741,220.484 126.056,220.484 124.827 C 220.484 123.963,220.351 123.322,219.996 122.480 C 219.652 121.666,219.466 120.797,219.367 119.553 C 219.274 118.385,219.098 117.531,218.851 117.039 C 218.602 116.546,218.436 115.735,218.359 114.638 C 218.285 113.578,218.104 112.673,217.857 112.124 C 217.632 111.625,217.368 110.400,217.225 109.195 C 217.077 107.953,216.832 106.836,216.614 106.402 C 216.377 105.933,216.203 105.072,216.118 103.947 C 216.028 102.774,215.847 101.903,215.555 101.247 C 215.268 100.601,215.087 99.747,215.012 98.675 C 214.936 97.599,214.755 96.740,214.460 96.068 C 214.149 95.357,213.989 94.560,213.912 93.328 C 213.833 92.081,213.691 91.376,213.406 90.830 C 213.149 90.336,212.923 89.346,212.762 88.005 C 212.625 86.869,212.368 85.657,212.190 85.311 C 212.009 84.959,211.771 83.807,211.650 82.704 C 211.522 81.532,211.296 80.466,211.095 80.088 C 210.909 79.737,210.704 78.866,210.639 78.152 C 210.514 76.773,210.071 76.111,209.681 76.723 C 209.569 76.898,209.502 90.432,209.500 113.021 C 209.497 146.273,209.474 149.066,209.189 149.380 C 208.803 149.807,193.568 149.918,193.147 149.497 C 192.903 149.253,192.804 37.053,193.048 36.809 C 193.298 36.560,216.698 36.666,216.905 36.918 M84.487 62.343 C 84.063 62.812,84.079 146.137,84.504 146.881 L 84.743 147.300 93.849 147.300 C 103.865 147.300,103.794 147.307,104.090 146.207 C 104.408 145.029,104.268 62.666,103.948 62.346 C 103.495 61.893,84.897 61.890,84.487 62.343 " stroke="none" fill="#fafcfb" fill-rule="evenodd"></path><path id="path1" d="M45.003 1.800 C 44.935 1.868,44.879 2.117,44.879 2.353 C 44.879 2.773,44.835 2.783,42.691 2.834 L 40.503 2.886 40.444 3.399 L 40.385 3.911 38.810 3.911 L 37.235 3.911 37.124 4.462 C 37.014 5.013,37.013 5.014,35.500 5.067 C 34.001 5.120,33.984 5.126,33.926 5.633 C 33.869 6.128,33.829 6.145,32.762 6.145 C 31.659 6.145,31.657 6.146,31.657 6.704 L 31.657 7.263 30.540 7.263 C 29.427 7.263,29.423 7.265,29.423 7.812 C 29.423 8.350,29.401 8.362,28.352 8.417 C 27.338 8.470,27.278 8.500,27.222 8.985 C 27.173 9.414,27.075 9.497,26.617 9.497 C 26.134 9.497,26.071 9.562,26.071 10.056 L 26.071 10.615 24.953 10.615 L 23.836 10.615 23.836 11.173 C 23.836 11.670,23.774 11.732,23.277 11.732 C 22.811 11.732,22.719 11.806,22.719 12.183 C 22.719 12.532,22.593 12.661,22.160 12.756 C 21.741 12.848,21.601 12.983,21.601 13.299 C 21.601 13.668,21.468 13.741,20.531 13.890 C 19.636 14.032,19.450 14.126,19.402 14.466 C 19.363 14.743,19.170 14.911,18.797 14.993 C 18.385 15.084,18.250 15.219,18.250 15.541 C 18.250 15.867,18.117 15.995,17.691 16.080 C 17.252 16.168,17.132 16.290,17.132 16.650 C 17.132 17.011,17.024 17.120,16.620 17.166 C 16.218 17.213,16.095 17.335,16.049 17.737 C 16.003 18.141,15.893 18.250,15.532 18.250 C 15.173 18.250,15.051 18.369,14.963 18.808 C 14.878 19.234,14.750 19.367,14.424 19.367 C 14.102 19.367,13.966 19.502,13.876 19.914 C 13.794 20.287,13.626 20.480,13.349 20.519 C 13.008 20.568,12.916 20.749,12.781 21.648 C 12.639 22.598,12.572 22.719,12.189 22.719 C 11.856 22.719,11.743 22.836,11.698 23.231 C 11.651 23.633,11.529 23.756,11.127 23.802 C 10.698 23.851,10.615 23.950,10.615 24.407 C 10.615 24.890,10.550 24.953,10.056 24.953 L 9.497 24.953 9.497 26.071 L 9.497 27.188 8.939 27.188 C 8.445 27.188,8.380 27.252,8.380 27.734 C 8.380 28.192,8.297 28.290,7.868 28.340 C 7.383 28.395,7.353 28.456,7.300 29.469 C 7.245 30.518,7.233 30.540,6.695 30.540 C 6.147 30.540,6.145 30.544,6.145 31.657 L 6.145 32.775 5.587 32.775 C 5.029 32.775,5.028 32.776,5.028 33.880 C 5.028 34.947,5.010 34.987,4.516 35.043 C 4.009 35.102,4.003 35.118,3.950 36.617 C 3.896 38.131,3.896 38.131,3.345 38.242 L 2.793 38.352 2.793 39.927 L 2.793 41.502 2.281 41.561 L 1.769 41.620 1.717 43.796 L 1.664 45.973 1.158 46.031 L 0.652 46.089 0.652 93.110 L 0.652 140.130 1.158 140.189 L 1.664 140.247 1.717 142.423 L 1.769 144.600 2.281 144.659 L 2.793 144.717 2.793 146.293 L 2.793 147.868 3.345 147.978 C 3.896 148.088,3.896 148.089,3.950 149.603 C 4.003 151.101,4.009 151.118,4.516 151.176 C 5.010 151.233,5.028 151.273,5.028 152.340 C 5.028 153.444,5.029 153.445,5.587 153.445 L 6.145 153.445 6.145 154.562 C 6.145 155.676,6.147 155.680,6.695 155.680 C 7.233 155.680,7.245 155.702,7.300 156.750 C 7.353 157.764,7.383 157.824,7.868 157.880 C 8.297 157.930,8.380 158.028,8.380 158.485 C 8.380 158.968,8.445 159.032,8.939 159.032 L 9.497 159.032 9.497 160.149 L 9.497 161.266 10.056 161.266 C 10.550 161.266,10.615 161.330,10.615 161.813 C 10.615 162.270,10.698 162.368,11.127 162.418 C 11.529 162.464,11.651 162.587,11.698 162.989 C 11.743 163.383,11.856 163.501,12.189 163.501 C 12.572 163.501,12.639 163.622,12.781 164.572 C 12.916 165.470,13.008 165.652,13.349 165.700 C 13.626 165.740,13.794 165.933,13.876 166.306 C 13.966 166.717,14.102 166.853,14.424 166.853 C 14.750 166.853,14.878 166.986,14.963 167.412 C 15.051 167.850,15.173 167.970,15.532 167.970 C 15.893 167.970,16.003 168.078,16.049 168.482 C 16.095 168.885,16.218 169.007,16.620 169.053 C 17.024 169.100,17.132 169.209,17.132 169.570 C 17.132 169.930,17.252 170.052,17.691 170.140 C 18.125 170.227,18.250 170.351,18.250 170.698 C 18.250 171.046,18.374 171.170,18.808 171.257 C 19.186 171.333,19.367 171.480,19.367 171.711 C 19.367 172.166,19.918 172.439,20.832 172.439 C 21.506 172.439,21.582 172.488,21.636 172.952 C 21.682 173.354,21.804 173.476,22.207 173.523 C 22.609 173.569,22.719 173.679,22.719 174.035 C 22.719 174.414,22.810 174.488,23.277 174.488 C 23.774 174.488,23.836 174.550,23.836 175.047 L 23.836 175.605 24.953 175.605 L 26.071 175.605 26.071 176.164 C 26.071 176.658,26.134 176.723,26.617 176.723 C 27.075 176.723,27.173 176.806,27.222 177.235 C 27.278 177.719,27.338 177.750,28.352 177.803 C 29.401 177.857,29.423 177.870,29.423 178.408 C 29.423 178.955,29.427 178.957,30.540 178.957 L 31.657 178.957 31.657 179.516 C 31.657 180.074,31.659 180.074,32.762 180.074 C 33.829 180.074,33.869 180.092,33.926 180.587 C 33.984 181.093,34.001 181.099,35.500 181.152 C 37.013 181.206,37.014 181.206,37.124 181.758 L 37.235 182.309 38.810 182.309 L 40.385 182.309 40.444 182.821 L 40.503 183.333 42.679 183.386 L 44.855 183.438 44.914 183.944 L 44.972 184.451 91.931 184.498 L 138.890 184.544 139.013 183.985 L 139.136 183.426 141.267 183.426 L 143.399 183.426 143.510 182.868 L 143.622 182.309 145.182 182.309 L 146.741 182.309 146.741 181.758 L 146.741 181.206 148.371 181.153 C 149.995 181.099,150.000 181.097,150.059 180.587 C 150.116 180.092,150.156 180.074,151.223 180.074 C 152.326 180.074,152.328 180.074,152.328 179.516 L 152.328 178.957 153.445 178.957 L 154.562 178.957 154.562 178.399 C 154.562 177.845,154.572 177.840,155.591 177.840 C 156.585 177.840,156.624 177.821,156.732 177.281 C 156.825 176.816,156.933 176.723,157.379 176.723 C 157.850 176.723,157.914 176.655,157.914 176.164 C 157.914 175.857,157.998 175.605,158.101 175.605 C 158.203 175.605,158.287 175.368,158.287 175.078 C 158.287 174.690,158.422 174.482,158.799 174.291 C 159.081 174.149,159.581 173.820,159.911 173.562 C 160.242 173.303,160.895 172.798,161.363 172.439 C 161.832 172.081,162.459 171.578,162.757 171.322 C 163.055 171.066,163.646 170.563,164.071 170.205 C 165.082 169.351,168.282 166.172,168.994 165.313 C 169.302 164.942,169.763 164.371,170.019 164.044 C 170.275 163.716,170.777 163.090,171.136 162.653 C 172.713 160.728,172.998 160.350,172.998 160.190 C 172.998 160.097,173.166 159.869,173.371 159.683 C 173.575 159.498,173.743 159.269,173.743 159.174 C 173.743 159.079,174.023 158.568,174.366 158.039 C 175.330 156.547,175.742 155.851,176.255 154.842 C 176.515 154.330,176.846 153.701,176.991 153.445 C 177.615 152.338,178.999 149.101,179.458 147.672 C 179.607 147.211,179.893 146.470,180.094 146.024 C 180.296 145.578,180.581 144.584,180.728 143.814 C 180.875 143.045,181.079 142.315,181.180 142.194 C 181.281 142.072,181.497 141.097,181.661 140.027 C 181.826 138.957,182.091 137.495,182.252 136.778 C 182.809 134.298,182.849 131.396,182.853 93.296 C 182.857 57.269,182.783 51.060,182.337 49.888 C 182.240 49.632,182.016 48.421,181.840 47.197 C 181.663 45.973,181.369 44.590,181.186 44.123 C 181.003 43.656,180.793 42.860,180.720 42.354 C 180.647 41.848,180.393 41.015,180.155 40.503 C 179.917 39.991,179.643 39.217,179.547 38.784 C 179.450 38.351,179.208 37.720,179.008 37.382 C 178.809 37.044,178.584 36.518,178.509 36.214 C 178.324 35.470,176.014 30.779,175.476 30.057 C 175.240 29.740,175.047 29.414,175.047 29.332 C 175.047 29.250,174.418 28.252,173.651 27.115 C 171.675 24.187,171.720 24.250,170.516 22.812 C 169.916 22.095,169.215 21.257,168.960 20.950 C 168.367 20.236,164.963 16.825,164.186 16.164 C 161.618 13.984,159.704 12.530,157.868 11.362 L 156.612 10.563 156.658 9.518 L 156.704 8.473 155.633 8.417 C 154.584 8.362,154.562 8.350,154.562 7.812 C 154.562 7.265,154.558 7.263,153.445 7.263 L 152.328 7.263 152.328 6.704 C 152.328 6.146,152.326 6.145,151.223 6.145 C 150.156 6.145,150.116 6.128,150.059 5.633 C 150.000 5.123,149.995 5.121,148.371 5.067 L 146.741 5.013 146.741 4.462 L 146.741 3.911 145.182 3.911 L 143.622 3.911 143.510 3.352 L 143.399 2.793 141.267 2.793 L 139.136 2.793 139.013 2.235 L 138.890 1.676 92.009 1.676 C 66.224 1.676,45.071 1.732,45.003 1.800 M71.718 33.641 C 72.124 34.130,72.197 50.420,71.796 51.194 C 71.441 51.881,71.289 51.903,65.755 52.049 C 61.661 52.157,61.113 52.238,60.149 52.878 C 59.995 52.980,59.576 53.192,59.218 53.349 C 57.840 53.952,56.076 55.467,55.560 56.490 C 55.398 56.812,55.076 57.286,54.845 57.542 C 54.614 57.798,54.376 58.331,54.316 58.726 C 54.256 59.120,54.015 59.791,53.781 60.215 C 53.383 60.936,53.355 61.201,53.353 64.246 L 53.352 67.505 62.477 67.552 C 70.792 67.594,71.622 67.627,71.834 67.913 C 72.220 68.434,72.166 85.809,71.777 86.365 L 71.487 86.778 62.699 86.781 C 57.487 86.783,53.797 86.856,53.631 86.961 C 53.386 87.116,53.341 90.741,53.259 117.132 C 53.177 143.524,53.132 147.148,52.886 147.304 C 52.333 147.653,36.026 147.534,35.730 147.178 C 35.517 146.921,35.459 141.951,35.382 117.057 C 35.331 100.660,35.221 87.139,35.138 87.011 C 35.022 86.832,33.428 86.778,28.213 86.778 C 21.567 86.778,20.603 86.704,20.258 86.162 C 19.935 85.654,20.089 68.221,20.419 67.946 C 20.664 67.743,22.216 67.672,28.008 67.598 L 35.289 67.505 35.328 65.829 C 35.411 62.339,35.786 58.403,36.125 57.459 C 36.311 56.941,36.517 55.931,36.584 55.214 C 36.663 54.362,36.861 53.632,37.156 53.104 C 37.405 52.660,37.662 51.890,37.728 51.392 C 37.807 50.795,37.996 50.349,38.283 50.079 C 38.545 49.833,38.766 49.351,38.838 48.872 C 38.911 48.387,39.132 47.910,39.402 47.657 C 39.646 47.428,39.898 46.959,39.962 46.616 C 40.027 46.272,40.180 45.929,40.302 45.854 C 40.425 45.779,40.667 45.510,40.840 45.256 C 42.081 43.440,46.559 39.040,47.532 38.680 C 47.763 38.595,48.119 38.377,48.324 38.195 C 48.529 38.014,49.053 37.764,49.488 37.641 C 49.923 37.517,50.279 37.339,50.279 37.246 C 50.279 37.154,50.782 36.894,51.397 36.670 C 52.011 36.446,52.514 36.199,52.514 36.122 C 52.514 35.889,53.966 35.382,54.634 35.382 C 54.986 35.382,55.475 35.211,55.758 34.988 C 56.051 34.758,56.699 34.536,57.319 34.453 C 57.903 34.376,58.925 34.165,59.590 33.983 C 62.186 33.276,71.204 33.022,71.718 33.641 M103.911 33.515 C 104.355 33.796,104.442 52.514,104.001 52.955 C 103.547 53.409,84.917 53.420,84.464 52.966 C 84.107 52.609,84.012 34.351,84.364 33.694 C 84.580 33.291,103.285 33.120,103.911 33.515 M149.477 33.566 C 149.560 33.694,149.669 40.126,149.721 47.858 L 149.814 61.918 157.157 61.967 C 163.664 62.010,164.539 62.050,164.839 62.322 C 165.274 62.715,165.365 80.531,164.936 81.378 L 164.700 81.844 157.304 81.892 C 153.235 81.919,149.887 81.961,149.863 81.985 C 149.838 82.010,149.776 96.527,149.723 114.246 C 149.640 142.371,149.592 146.515,149.350 146.881 L 149.072 147.300 140.005 147.300 C 134.712 147.300,130.742 147.226,130.470 147.122 C 129.599 146.791,129.611 147.270,129.607 113.966 C 129.605 96.606,129.540 82.302,129.462 82.180 C 129.357 82.015,127.426 81.942,122.025 81.900 C 116.350 81.856,114.676 81.790,114.488 81.602 C 114.186 81.300,114.036 62.842,114.331 62.384 C 114.485 62.146,115.619 62.091,122.014 62.011 L 129.516 61.918 129.609 47.805 C 129.690 35.531,129.738 33.669,129.981 33.516 C 130.436 33.229,149.290 33.277,149.477 33.566 M293.791 36.653 C 293.299 37.196,293.317 149.088,293.808 149.461 C 294.265 149.808,370.566 149.844,370.912 149.497 C 371.080 149.329,371.136 146.994,371.136 140.130 C 371.136 133.267,371.080 130.931,370.912 130.764 C 370.741 130.592,364.393 130.540,343.473 130.540 C 315.076 130.540,315.228 130.544,315.012 129.737 C 314.952 129.513,314.902 123.483,314.900 116.336 L 314.898 103.343 315.375 103.161 C 315.678 103.046,325.875 102.980,343.180 102.980 C 364.748 102.980,370.573 102.930,370.823 102.747 C 371.116 102.532,371.136 101.774,371.092 92.924 L 371.043 83.333 343.203 83.240 C 327.891 83.189,315.258 83.079,315.130 82.996 C 314.735 82.741,314.796 55.758,315.192 55.607 C 315.354 55.544,327.875 55.493,343.017 55.493 C 358.158 55.493,370.679 55.443,370.841 55.380 C 371.228 55.232,371.297 36.921,370.912 36.536 C 370.484 36.108,294.179 36.224,293.791 36.653 M193.048 36.809 C 192.804 37.053,192.903 149.253,193.147 149.497 C 193.568 149.918,208.803 149.807,209.189 149.380 C 209.474 149.066,209.497 146.273,209.500 113.021 C 209.502 90.432,209.569 76.898,209.681 76.723 C 210.071 76.111,210.514 76.773,210.639 78.152 C 210.704 78.866,210.909 79.737,211.095 80.088 C 211.296 80.466,211.522 81.532,211.650 82.704 C 211.771 83.807,212.009 84.959,212.190 85.311 C 212.368 85.657,212.625 86.869,212.762 88.005 C 212.923 89.346,213.149 90.336,213.406 90.830 C 213.691 91.376,213.833 92.081,213.912 93.328 C 213.989 94.560,214.149 95.357,214.460 96.068 C 214.755 96.740,214.936 97.599,215.012 98.675 C 215.087 99.747,215.268 100.601,215.555 101.247 C 215.847 101.903,216.028 102.774,216.118 103.947 C 216.203 105.072,216.377 105.933,216.614 106.402 C 216.832 106.836,217.077 107.953,217.225 109.195 C 217.368 110.400,217.632 111.625,217.857 112.124 C 218.104 112.673,218.285 113.578,218.359 114.638 C 218.436 115.735,218.602 116.546,218.851 117.039 C 219.098 117.531,219.274 118.385,219.367 119.553 C 219.466 120.797,219.652 121.666,219.996 122.480 C 220.351 123.322,220.484 123.963,220.484 124.827 C 220.484 126.056,220.648 126.741,221.250 128.038 C 221.493 128.562,221.603 129.222,221.606 130.180 C 221.609 131.247,221.720 131.820,222.090 132.682 C 222.423 133.458,222.615 134.339,222.718 135.568 C 222.820 136.793,223.007 137.652,223.324 138.361 C 223.651 139.093,223.813 139.864,223.891 141.061 C 223.974 142.322,224.119 142.980,224.477 143.714 C 224.825 144.428,224.953 144.989,224.953 145.800 C 224.953 147.476,225.277 148.698,225.897 149.361 L 226.439 149.942 234.961 149.804 C 245.230 149.639,244.745 149.811,244.938 146.276 C 244.996 145.220,245.155 144.487,245.483 143.762 C 245.821 143.016,245.971 142.306,246.033 141.155 C 246.096 139.979,246.230 139.356,246.554 138.734 C 246.867 138.131,247.026 137.424,247.120 136.218 C 247.203 135.138,247.392 134.229,247.648 133.666 C 247.879 133.159,248.118 132.093,248.218 131.126 C 248.326 130.083,248.540 129.167,248.790 128.678 C 249.039 128.189,249.253 127.273,249.361 126.233 C 249.470 125.179,249.681 124.282,249.937 123.784 C 250.216 123.241,250.368 122.538,250.427 121.508 C 250.489 120.434,250.638 119.770,250.962 119.127 C 251.267 118.519,251.458 117.719,251.561 116.613 C 251.661 115.534,251.853 114.714,252.135 114.164 C 252.423 113.601,252.600 112.826,252.690 111.735 C 252.782 110.623,252.968 109.822,253.298 109.117 C 253.640 108.387,253.798 107.681,253.860 106.611 C 253.925 105.508,254.056 104.939,254.367 104.422 C 254.671 103.916,254.824 103.273,254.924 102.094 C 255.010 101.065,255.199 100.191,255.437 99.721 C 255.666 99.268,255.860 98.401,255.932 97.510 C 256.006 96.596,256.222 95.651,256.505 94.996 C 256.791 94.335,257.003 93.398,257.079 92.458 C 257.155 91.521,257.358 90.623,257.625 90.037 C 257.913 89.409,258.090 88.573,258.171 87.467 C 258.256 86.295,258.416 85.578,258.731 84.953 C 259.041 84.336,259.211 83.584,259.308 82.402 C 259.407 81.197,259.573 80.474,259.901 79.827 C 260.159 79.318,260.388 78.489,260.430 77.915 C 260.528 76.567,261.017 75.991,261.343 76.840 C 261.407 77.007,261.458 93.320,261.456 113.092 C 261.453 146.269,261.477 149.066,261.761 149.380 C 262.170 149.832,277.446 149.916,277.817 149.468 C 277.972 149.283,278.014 134.402,277.980 92.997 L 277.933 36.778 265.924 36.778 L 253.915 36.778 253.787 37.672 C 253.717 38.163,253.473 38.917,253.244 39.348 C 252.952 39.899,252.790 40.628,252.696 41.812 C 252.602 43.001,252.438 43.737,252.135 44.326 C 251.831 44.917,251.669 45.646,251.576 46.840 C 251.484 48.034,251.322 48.762,251.018 49.354 C 250.713 49.945,250.551 50.674,250.459 51.868 C 250.368 53.041,250.203 53.796,249.912 54.367 C 249.626 54.926,249.449 55.719,249.349 56.875 C 249.252 58.009,249.074 58.817,248.808 59.328 C 248.549 59.825,248.357 60.667,248.256 61.749 C 248.152 62.867,247.963 63.679,247.676 64.240 C 247.375 64.828,247.212 65.567,247.120 66.754 C 247.027 67.961,246.867 68.673,246.555 69.274 C 246.242 69.878,246.097 70.527,246.037 71.601 C 245.977 72.672,245.826 73.353,245.500 74.022 C 245.182 74.676,245.017 75.398,244.949 76.443 C 244.882 77.455,244.698 78.286,244.375 79.034 C 244.047 79.794,243.859 80.658,243.766 81.827 C 243.669 83.054,243.512 83.747,243.194 84.346 C 242.874 84.951,242.722 85.626,242.630 86.860 C 242.542 88.034,242.383 88.772,242.108 89.285 C 241.891 89.691,241.713 90.319,241.712 90.682 C 241.709 91.810,241.347 93.643,240.983 94.370 C 240.773 94.789,240.587 95.693,240.514 96.647 C 240.430 97.745,240.253 98.526,239.936 99.196 C 239.684 99.728,239.479 100.488,239.479 100.885 C 239.479 101.960,239.117 103.717,238.742 104.463 C 238.548 104.850,238.358 105.806,238.281 106.781 C 238.190 107.937,238.021 108.700,237.723 109.295 C 237.415 109.908,237.268 110.597,237.199 111.739 C 237.126 112.955,236.989 113.556,236.615 114.293 C 236.345 114.826,236.126 115.573,236.126 115.962 C 236.123 117.898,235.528 118.638,234.987 117.379 C 234.775 116.885,234.444 116.144,234.251 115.732 C 234.043 115.289,233.849 114.316,233.775 113.341 C 233.694 112.294,233.519 111.451,233.291 111.016 C 233.069 110.593,232.875 109.686,232.779 108.622 C 232.670 107.409,232.484 106.612,232.141 105.887 C 231.769 105.100,231.657 104.573,231.656 103.596 C 231.654 102.615,231.543 102.096,231.166 101.304 C 230.806 100.547,230.640 99.814,230.531 98.500 C 230.420 97.156,230.278 96.540,229.950 95.986 C 229.616 95.422,229.490 94.860,229.405 93.562 C 229.323 92.312,229.172 91.609,228.822 90.862 C 228.482 90.134,228.326 89.434,228.265 88.361 C 228.207 87.324,228.057 86.631,227.773 86.079 C 227.493 85.535,227.309 84.694,227.186 83.404 C 227.058 82.058,226.896 81.344,226.618 80.894 C 226.343 80.449,226.179 79.738,226.059 78.461 C 225.946 77.275,225.756 76.403,225.502 75.917 C 225.248 75.428,225.067 74.600,224.972 73.482 C 224.871 72.304,224.697 71.534,224.400 70.955 C 224.098 70.366,223.935 69.631,223.843 68.441 C 223.752 67.268,223.587 66.516,223.298 65.955 C 223.018 65.410,222.835 64.601,222.730 63.441 C 222.630 62.330,222.427 61.406,222.150 60.801 C 221.864 60.176,221.681 59.317,221.593 58.194 C 221.497 56.961,221.352 56.331,221.044 55.813 C 220.739 55.299,220.587 54.645,220.480 53.392 C 220.380 52.224,220.180 51.319,219.854 50.559 C 219.509 49.754,219.374 49.108,219.371 48.249 C 219.368 47.382,219.244 46.797,218.918 46.107 C 218.614 45.465,218.427 44.646,218.340 43.575 C 218.257 42.558,218.059 41.660,217.787 41.061 C 217.530 40.498,217.309 39.542,217.229 38.641 C 217.155 37.821,217.009 37.046,216.905 36.918 C 216.698 36.666,193.298 36.560,193.048 36.809 M103.948 62.346 C 104.268 62.666,104.408 145.029,104.090 146.207 C 103.794 147.307,103.865 147.300,93.849 147.300 L 84.743 147.300 84.504 146.881 C 84.079 146.137,84.063 62.812,84.487 62.343 C 84.897 61.890,103.495 61.893,103.948 62.346 " stroke="none" fill="#04fc6c" fill-rule="evenodd"></path></g></svg>